# xmcd
# Track frame offsets:
# 150
# 18912
# 34490
# 59850
# 77675
# 93805
# 119670
# 138030
# 153862
# 165400
# 177655
# 193652
#
# Disc length: 2815 seconds
# Revision: 0
# Processed by: cddbd v1.4PL0 Copyright (c) Steve Scherf et al.
# Submitted via: VisiTrax 2.9.5.181 - For more info visit www.synapsa.com
#
DISCID=9c0afd0c
DTITLE=Artie White - Chicago Deep
DYEAR=1990
DGENRE=Blues
TTITLE0=Artie White - Warm Room
TTITLE1=Artie White - Leaning Tree
TTITLE2=Artie White - I Need Someone
TTITLE3=Artie White - Chain Of Fools
TTITLE4=Artie White - Turned Out
TTITLE5=Artie White - Funny, How Time Slips Away
TTITLE6=Artie White - Jimmie
TTITLE7=Artie White - What Please You, Please Me
TTITLE8=Lee Shot Williams - Checkin' Out
TTITLE9=Lee Shot Williams - Baby Baby
TTITLE10=Cicero Blake - Dip My Dipper
TTITLE11=Cicero Blake - Be Good To Me
EXTD=
EXTT0=
EXTT1=
EXTT2=
EXTT3=
EXTT4=
EXTT5=
EXTT6=
EXTT7=
EXTT8=
EXTT9=
EXTT10=
EXTT11=
PLAYORDER=
